<?xml version="1.0" encoding="UTF-8"?> <svg xmlns="http://www.w3.org/2000/svg" viewBox="0 0 845.59 335.2"><defs><style>.cls-1{fill:#2c3e50;}</style></defs><title>logo_akeo_f</title><g id="Layer_2" data-name="Layer 2"><g id="Layer_1-2" data-name="Layer 1"><path class="cls-1" d="M28,208.91A99,99,0,0,1,57,196.8a138.88,138.88,0,0,1,33.71-4,153.63,153.63,0,0,1,47,7.12,90.61,90.61,0,0,0-6.17-26.12q-6.18-14.7-18.52-21.36a43.43,43.43,0,0,0-10.21-3.56,59.68,59.68,0,0,0-12.58-1.19H85a77.54,77.54,0,0,0-13.3,2.14q-6.64,1.66-13.29,4t-13.3,4a52.65,52.65,0,0,1-12.81,1.66,30.21,30.21,0,0,1-12.82-2.85q-5.7-3.31-10-10.92l-.95-1.9.95-1.42A111.74,111.74,0,0,1,85,107.3a21.51,21.51,0,0,1,4-.47h4a99.16,99.16,0,0,1,39.88,7.83,96.52,96.52,0,0,1,31.34,21.61q27.06,29.44,28,77.39v3.79q0,49.4-25.16,80.24a99.26,99.26,0,0,1-29.68,24.69,103.25,103.25,0,0,1-38.69,11.87,35.37,35.37,0,0,1-5.7.48H86.89A139.86,139.86,0,0,1,66,333.07a81.36,81.36,0,0,1-21.37-6.41A81.78,81.78,0,0,1,24.69,315.5,57.54,57.54,0,0,1,9.5,297.69Q.47,283.93,0,264v-2.84q0-18.52,7.6-30.87Q14.25,217.94,28,208.91Zm98.28,22.79q-6.17-.94-14-1.9a132.75,132.75,0,0,0-15.91-1,112.9,112.9,0,0,0-12.82.71,50.64,50.64,0,0,0-11.39,2.61Q60.29,236,54.13,244a23.57,23.57,0,0,0-3.8,6.41,29.72,29.72,0,0,0-1.9,7.84,14.23,14.23,0,0,0-.48,4.27,40.55,40.55,0,0,0,1.43,10.21A24.41,24.41,0,0,0,55.08,283a29.42,29.42,0,0,0,11.15,8.07q7.36,3.33,19.71,3.32a25.66,25.66,0,0,0,5.69-.47,41.69,41.69,0,0,0,23.27-7.6,31,31,0,0,0,8.07-6.89,46.57,46.57,0,0,0,5.7-8.78,60.55,60.55,0,0,0,7.12-18.52,90.33,90.33,0,0,0,1.9-17.56.94.94,0,0,1-.71-.24,1,1,0,0,0-.71-.24c-1.27-.31-2.7-.63-4.28-.95S128.51,232.34,126.29,231.7Z"></path><path class="cls-1" d="M422.08,314.31a54.94,54.94,0,0,1-9.49,7.6,48.55,48.55,0,0,1-10,5,32.16,32.16,0,0,1-11.4,2.14,41.39,41.39,0,0,1-29.43-11.63A164.14,164.14,0,0,1,339,290.57l-12.35-18.51q-6.64-10-12.82-19t-11.16-16.61q-5-7.59-7.83-11.4-7.6,6.18-14,11.63t-11.15,9.26v38q0,14.24.23,23.26t.72,14.24q.47,5.7.95,8.55-29.44,0-44.87-12.34t-15.43-40.36L212.7,52.7q0-28.49,14.72-40.59T271.58,0q-.48,2.85-.95,8.55-.48,5.22-.72,14.24t-.23,23.26V176.62q7.11-5.22,14.95-11.39t15.2-12.35q7.35-6.16,14.24-11.39t11.63-9q19-15.19,31.58-19.71a95.46,95.46,0,0,1,22.07-5.46q11.4-.94,18.28,1.9a32.74,32.74,0,0,1,10.69,6.65A26.81,26.81,0,0,1,415,126.29q-3.79,2.85-11.63,9.26l-18.28,15q-10.44,8.55-22.79,18.75T337.1,189.92l52.7,77.39Z"></path><path class="cls-1" d="M601.08,283.93q5.68,3.31,10.92,11.39l1.42,1.42L612,298.17a112.77,112.77,0,0,1-84,36.56,97.62,97.62,0,0,1-41.07-8.79,107.27,107.27,0,0,1-33.95-24.45,113.94,113.94,0,0,1-22.55-35.84,117.83,117.83,0,0,1-8.31-44.4,131.22,131.22,0,0,1,7.36-44.39,110.33,110.33,0,0,1,21.13-36.32A101.61,101.61,0,0,1,484,116.32q19.69-9,43.92-9a119.57,119.57,0,0,1,29.2,4,100.91,100.91,0,0,1,29.67,12.82,73.7,73.7,0,0,1,22.79,23q9,14.24,9,34.18,0,19.47-10,31.57a72.38,72.38,0,0,1-23.74,19,103.48,103.48,0,0,1-29.2,9.49A162.76,162.76,0,0,1,528.91,244a192.67,192.67,0,0,1-30.63-2.13q-13.06-2.15-17.8-3.09,1.89,17.09,7.6,27.78a58,58,0,0,0,12.82,16.85,39.07,39.07,0,0,0,14.24,8.31A45.29,45.29,0,0,0,528,293.9a91.82,91.82,0,0,0,19-1.9,143.94,143.94,0,0,0,16.14-4.28q7.13-2.37,13.53-4.74a36.2,36.2,0,0,1,12.59-2.38A21.63,21.63,0,0,1,601.08,283.93ZM528,147.66a64.78,64.78,0,0,0-12.35,2.61,40.3,40.3,0,0,0-14,7.84q-6.89,5.69-12.58,16.14T481,200.84a156.09,156.09,0,0,0,21.61,4.51,110.88,110.88,0,0,0,28,.71A57,57,0,0,0,555.26,198q10.68-6.65,11.63-22.32.95-11.86-9.26-20.41T528,147.66Z"></path><path class="cls-1" d="M814.25,141a110,110,0,0,1,23,35.85,118,118,0,0,1,8.31,44.39,127.73,127.73,0,0,1-7.6,44.4,108.57,108.57,0,0,1-21.37,35.84,98.54,98.54,0,0,1-33.47,24.69q-19.71,9-43.92,9a95.57,95.57,0,0,1-41.07-9,110.41,110.41,0,0,1-33.94-24.69,114,114,0,0,1-22.56-35.84,117.83,117.83,0,0,1-8.31-44.4,131.22,131.22,0,0,1,7.36-44.39A105.54,105.54,0,0,1,661.84,141a98.8,98.8,0,0,1,33.47-24.69q19.71-9,43.92-9a96.66,96.66,0,0,1,41.55,9A105.35,105.35,0,0,1,814.25,141Zm-75,153.36a45.65,45.65,0,0,0,14.48-2.85q8.31-2.85,15.91-10.92t12.82-22.31q5.22-14.25,5.22-37T782.44,184q-5.24-14.47-12.82-22.31T753.71,151a38.21,38.21,0,0,0-29,0q-8.31,2.85-15.9,10.69T696,184q-5.24,14.49-5.23,37.27t5.23,37q5.22,14.23,12.82,22.31t15.9,10.92A45.65,45.65,0,0,0,739.23,294.37Z"></path></g></g></svg> 